<?xml version="1.0" encoding="utf-8"?>
<!-- Generator: Adobe Illustrator 19.0.0, SVG Export Plug-In . SVG Version: 6.00 Build 0)  -->
<svg version="1.1" id="Layer_1" xmlns="http://www.w3.org/2000/svg" xmlns:xlink="http://www.w3.org/1999/xlink" x="0px" y="0px"
	 viewBox="0 0 400 225" enable-background="new 0 0 400 225" xml:space="preserve">
<g id="XMLID_3_">
	<g id="XMLID_249_">
		<path id="XMLID_254_" fill="#63B132" d="M189.716,105.748c-1.436-1.998-3.309-3.06-5.87-3.06c-1.998,0-4.371,0.937-4.371,3.184
			c0,5.37,16.173,0.999,16.173,12.676c0,7.119-6.807,9.617-12.926,9.617c-4.621,0-8.617-1.186-11.677-4.621l4.996-4.683
			c1.936,2.123,3.934,3.684,7.119,3.684c2.185,0,4.995-1.061,4.995-3.435c0-6.181-16.172-1.311-16.172-12.738
			c0-6.682,5.995-9.679,12.051-9.679c3.997,0,8.243,1.249,10.678,4.558L189.716,105.748z"/>
		<path id="XMLID_252_" fill="#63B132" d="M217.439,105.748c-1.436-1.998-3.309-3.06-5.87-3.06c-1.998,0-4.371,0.937-4.371,3.184
			c0,5.37,16.173,0.999,16.173,12.676c0,7.119-6.807,9.617-12.926,9.617c-4.621,0-8.617-1.186-11.677-4.621l4.995-4.683
			c1.936,2.123,3.934,3.684,7.118,3.684c2.186,0,4.996-1.061,4.996-3.435c0-6.181-16.173-1.311-16.173-12.738
			c0-6.682,5.995-9.679,12.052-9.679c3.996,0,8.243,1.249,10.678,4.558L217.439,105.748z"/>
		<path id="XMLID_250_" fill="#63B132" d="M245.161,105.748c-1.436-1.998-3.309-3.06-5.87-3.06c-1.998,0-4.371,0.937-4.371,3.184
			c0,5.37,16.173,0.999,16.173,12.676c0,7.119-6.807,9.617-12.926,9.617c-4.621,0-8.617-1.186-11.677-4.621l4.995-4.683
			c1.936,2.123,3.934,3.684,7.118,3.684c2.186,0,4.996-1.061,4.996-3.435c0-6.181-16.173-1.311-16.173-12.738
			c0-6.682,5.995-9.679,12.052-9.679c3.996,0,8.243,1.249,10.678,4.558L245.161,105.748z"/>
	</g>
</g>
<path id="XMLID_98_" fill="#414042" d="M273.571,118.424h-18.796v-7.43l17.796-27.788h8.492v28.475h6.432v6.743h-6.432v8.992h-7.493
	V118.424z M273.571,93.821h-0.125l-11.053,17.86h11.178V93.821z"/>
<path id="XMLID_101_" fill="#5881D8" d="M314.344,106.434c-1.748-1.811-3.685-2.997-5.683-2.997c-5.494,0-8.804,4.309-8.804,8.992
	c0,4.683,3.309,8.992,8.804,8.992c2.311,0,4.434-0.999,5.808-2.81l4.995,5.37c-3.059,3.06-8.18,4.184-10.803,4.184
	c-9.054,0-16.297-6.307-16.297-15.736c0-9.429,7.243-15.736,16.297-15.736c3.81,0,7.993,1.374,10.866,4.558L314.344,106.434z"/>
<path id="XMLID_103_" fill="#5881D8" d="M324.082,83.208h7.493v44.207h-7.493V83.208z"/>
<path id="XMLID_105_" fill="#5881D8" d="M347.809,97.443v31.784c0,7.493-1.561,13.175-10.116,13.175
	c-1.374,0-2.748-0.124-4.059-0.562l0.563-6.494c0.811,0.188,1.561,0.313,2.373,0.313c3.746,0,3.746-3.622,3.746-6.37V97.443H347.809
	z"/>
<g id="XMLID_5_">
	<path id="XMLID_6_" fill="#FFFFFF" d="M61.274,96.902l29.781-26.151h27.532l-34.172,30.341c-9.807,9.245-5.006,20.023,3.014,22.935
		H66.333c-8.658,0-13.102-3.703-14.711-8.607S52.12,104.655,61.274,96.902z"/>
	<path id="XMLID_7_" fill="#FFFFFF" d="M121.96,126.098l-29.781,26.151H64.647l34.172-30.341c9.807-9.245,5.006-20.023-3.014-22.935
		h21.096c8.658,0,13.102,3.703,14.711,8.607C133.222,112.483,130.795,118.613,121.96,126.098z"/>
</g>
<g id="XMLID_16_">
	<path id="XMLID_18_" fill="#91DC47" d="M76.024,96.902l29.781-26.151h27.532l-34.172,30.341
		c-9.807,9.245-5.006,20.023,3.014,22.935H81.082c-8.658,0-13.102-3.703-14.711-8.607C64.762,110.516,66.869,104.655,76.024,96.902z
		"/>
	<path id="XMLID_17_" fill="#90B4FE" d="M136.71,126.098l-29.781,26.151H79.397l34.172-30.341
		c9.807-9.245,5.006-20.023-3.014-22.935h21.096c8.658,0,13.102,3.703,14.711,8.607C147.971,112.483,145.545,118.613,136.71,126.098
		z"/>
</g>
<g id="XMLID_13_">
	<path id="XMLID_15_" fill="#FFFFFF" d="M72.856,96.902l29.781-26.151h27.532l-34.172,30.341
		c-9.807,9.245-5.006,20.023,3.014,22.935H77.915c-8.658,0-13.102-3.703-14.711-8.607S63.702,104.655,72.856,96.902z"/>
	<path id="XMLID_14_" fill="#FFFFFF" d="M133.542,126.098l-29.781,26.151H76.229l34.172-30.341
		c9.807-9.245,5.006-20.023-3.014-22.935h21.096c8.658,0,13.102,3.703,14.711,8.607
		C144.804,112.483,142.377,118.613,133.542,126.098z"/>
</g>
<g id="XMLID_10_">
	<path id="XMLID_12_" fill="#91DC47" d="M69.422,96.902l29.781-26.151h27.532l-34.172,30.341
		c-9.807,9.245-5.006,20.023,3.014,22.935H74.48c-8.658,0-13.102-3.703-14.711-8.607C58.16,110.516,60.267,104.655,69.422,96.902z"
		/>
	<path id="XMLID_11_" fill="#90B4FE" d="M130.108,126.098l-29.781,26.151H72.795l34.172-30.341
		c9.807-9.245,5.006-20.023-3.014-22.935h21.096c8.658,0,13.102,3.703,14.711,8.607
		C141.369,112.483,138.943,118.613,130.108,126.098z"/>
</g>
<g id="XMLID_8_">
	<path id="XMLID_9_" fill="#FFFFFF" d="M66.254,96.902l29.781-26.151h27.532l-34.172,30.341c-9.807,9.245-5.006,20.023,3.014,22.935
		H71.313c-8.658,0-13.102-3.703-14.711-8.607S57.1,104.655,66.254,96.902z"/>
	<path id="XMLID_19_" fill="#FFFFFF" d="M126.94,126.098l-29.781,26.151H69.627l34.172-30.341
		c9.807-9.245,5.006-20.023-3.014-22.935h21.096c8.658,0,13.102,3.703,14.711,8.607C138.202,112.483,135.775,118.613,126.94,126.098
		z"/>
</g>
<g id="XMLID_74_">
	<path id="XMLID_76_" fill="#63B132" d="M63.408,96.902l29.781-26.151h27.532l-34.172,30.341
		c-9.807,9.245-5.006,20.023,3.014,22.935H68.467c-8.658,0-13.102-3.703-14.711-8.607C52.147,110.516,54.254,104.655,63.408,96.902z
		"/>
	<path id="XMLID_75_" fill="#5881D8" d="M124.094,126.098l-29.781,26.151H66.781l34.172-30.341
		c9.807-9.245,5.006-20.023-3.014-22.935h21.096c8.658,0,13.102,3.703,14.711,8.607
		C135.356,112.483,132.929,118.613,124.094,126.098z"/>
</g>
<g id="XMLID_21_">
	<path id="XMLID_23_" fill="#414042" d="M173.203,137.028c0.05,0.381,0.179,0.65,0.385,0.806c0.196,0.166,0.407,0.25,0.633,0.25
		c0.29,0,0.54-0.094,0.749-0.281c0.199-0.177,0.302-0.414,0.309-0.713c0-0.205-0.027-0.374-0.081-0.51
		c-0.064-0.129-0.158-0.24-0.283-0.334c-0.124-0.09-0.276-0.175-0.454-0.255c-0.185-0.07-0.399-0.147-0.641-0.234
		c-0.152-0.063-0.327-0.141-0.526-0.234c-0.202-0.094-0.402-0.219-0.601-0.374c-0.192-0.17-0.354-0.385-0.485-0.645
		c-0.138-0.263-0.207-0.602-0.207-1.014c0.007-0.645,0.22-1.178,0.64-1.597c0.413-0.427,0.946-0.644,1.597-0.651
		c0.477,0,0.959,0.17,1.446,0.51c0.235,0.177,0.425,0.407,0.569,0.692c0.151,0.291,0.233,0.64,0.247,1.046h-1.445
		c-0.034-0.347-0.133-0.585-0.297-0.713c-0.174-0.115-0.361-0.172-0.558-0.172c-0.218,0-0.399,0.071-0.543,0.213
		c-0.161,0.149-0.241,0.345-0.241,0.588c0,0.327,0.118,0.557,0.353,0.692c0.118,0.07,0.252,0.137,0.404,0.202
		c0.158,0.063,0.33,0.13,0.515,0.203c0.175,0.048,0.375,0.118,0.6,0.209c0.222,0.107,0.439,0.249,0.651,0.426
		c0.215,0.181,0.395,0.417,0.54,0.708c0.138,0.291,0.21,0.653,0.217,1.082c-0.017,0.853-0.28,1.486-0.789,1.899
		c-0.506,0.413-1.072,0.619-1.699,0.619c-0.243,0-0.501-0.047-0.774-0.14c-0.132-0.055-0.266-0.12-0.404-0.193
		c-0.138-0.062-0.27-0.14-0.394-0.234c-0.256-0.191-0.464-0.442-0.622-0.754c-0.172-0.306-0.271-0.671-0.298-1.098H173.203z"/>
	<path id="XMLID_25_" fill="#414042" d="M178.552,131.404h1.373v2.383c0.047-0.041,0.113-0.102,0.197-0.182
		c0.08-0.07,0.18-0.135,0.297-0.198c0.242-0.149,0.572-0.227,0.992-0.234c0.702,0.014,1.29,0.316,1.764,0.906
		c0.222,0.305,0.356,0.635,0.404,0.989c0.034,0.353,0.05,0.649,0.05,0.884v3.335h-1.373v-3.025c0-0.163-0.007-0.346-0.02-0.551
		c-0.02-0.204-0.066-0.4-0.136-0.588c-0.067-0.19-0.185-0.346-0.352-0.467c-0.158-0.121-0.381-0.182-0.67-0.182
		s-0.509,0.068-0.66,0.203c-0.164,0.134-0.281,0.302-0.347,0.504c-0.111,0.436-0.16,0.806-0.146,1.107v2.999h-1.373V131.404z"/>
	<path id="XMLID_27_" fill="#414042" d="M188.55,139.478c-0.867-0.013-1.586-0.326-2.156-0.936c-0.591-0.603-0.89-1.339-0.897-2.206
		c0.013-0.916,0.319-1.668,0.917-2.258c0.588-0.59,1.301-0.892,2.138-0.906c0.841,0.007,1.554,0.302,2.138,0.885
		c0.585,0.579,0.884,1.332,0.898,2.258c-0.014,0.978-0.32,1.744-0.919,2.299C190.084,139.183,189.377,139.471,188.55,139.478z
		 M188.55,138.178c0.511-0.007,0.915-0.196,1.211-0.567c0.296-0.36,0.448-0.781,0.454-1.263c-0.006-0.555-0.175-1.005-0.505-1.351
		c-0.326-0.343-0.713-0.518-1.16-0.525c-0.377,0-0.746,0.152-1.106,0.457c-0.37,0.323-0.562,0.792-0.575,1.408
		c0.007,0.562,0.182,1.005,0.525,1.331C187.717,138.008,188.102,138.178,188.55,138.178z"/>
	<path id="XMLID_41_" fill="#414042" d="M193.804,134.629h-0.673v-1.259h0.673v-1.966h1.372v1.966h0.823v1.259h-0.823v4.657h-1.372
		V134.629z"/>
	<path id="XMLID_44_" fill="#414042" d="M203.391,133.37v4.829c-0.006,0.704-0.117,1.283-0.333,1.738
		c-0.212,0.454-0.482,0.81-0.812,1.067c-0.333,0.246-0.674,0.423-1.024,0.531c-0.359,0.107-0.681,0.161-0.963,0.161
		c-0.599,0-1.158-0.163-1.679-0.489c-0.531-0.323-0.932-0.814-1.2-1.472h1.57c0.138,0.156,0.279,0.281,0.424,0.374
		c0.145,0.091,0.283,0.158,0.414,0.203c0.269,0.063,0.463,0.091,0.58,0.084c0.414,0,0.796-0.149,1.146-0.448
		c0.353-0.299,0.556-0.763,0.61-1.395l-0.02-0.02c-0.041,0.063-0.106,0.144-0.197,0.245c-0.091,0.104-0.215,0.209-0.374,0.317
		c-0.145,0.107-0.323,0.195-0.535,0.265c-0.216,0.08-0.474,0.12-0.778,0.12c-0.73-0.007-1.391-0.295-1.983-0.864
		c-0.612-0.562-0.928-1.344-0.949-2.346c0.013-0.944,0.32-1.693,0.919-2.247c0.578-0.559,1.246-0.842,2.004-0.849
		c0.302,0,0.562,0.035,0.777,0.105c0.206,0.063,0.381,0.151,0.525,0.266c0.145,0.101,0.263,0.201,0.353,0.302
		c0.08,0.104,0.14,0.189,0.177,0.255h0.02v-0.728L203.391,133.37z M202.019,136.271c-0.007-0.447-0.159-0.854-0.454-1.221
		c-0.297-0.37-0.706-0.563-1.227-0.577c-0.427,0.007-0.808,0.168-1.141,0.484c-0.35,0.312-0.528,0.755-0.535,1.33
		c0.007,0.595,0.192,1.057,0.556,1.382c0.34,0.339,0.727,0.51,1.161,0.51c0.434,0,0.813-0.17,1.135-0.51
		C201.844,137.326,202.012,136.86,202.019,136.271z"/>
	<path id="XMLID_47_" fill="#414042" d="M210.46,133.37v5.916h-1.26v-0.595h-0.02c-0.047,0.08-0.113,0.161-0.197,0.244
		c-0.08,0.093-0.176,0.183-0.287,0.27c-0.111,0.069-0.249,0.131-0.413,0.187c-0.158,0.059-0.351,0.088-0.579,0.088
		c-0.507-0.007-0.915-0.114-1.224-0.322c-0.32-0.198-0.551-0.402-0.696-0.614c-0.198-0.336-0.317-0.703-0.357-1.098
		c-0.051-0.392-0.073-0.72-0.066-0.983v-3.091h1.372v3.018c0,0.122,0.007,0.277,0.02,0.468c0.02,0.198,0.064,0.398,0.131,0.599
		c0.071,0.198,0.191,0.364,0.363,0.499c0.158,0.149,0.384,0.224,0.68,0.224c0.427-0.007,0.731-0.188,0.912-0.542
		c0.164-0.343,0.247-0.756,0.247-1.239v-3.028H210.46z"/>
	<path id="XMLID_49_" fill="#414042" d="M212.651,133.37h1.265v0.515c0.064-0.066,0.141-0.14,0.232-0.223
		c0.088-0.08,0.193-0.154,0.317-0.224c0.256-0.17,0.597-0.259,1.024-0.266c0.262,0,0.555,0.059,0.877,0.177
		c0.316,0.128,0.599,0.342,0.847,0.64c0.263,0.333,0.417,0.702,0.464,1.108c0.048,0.413,0.068,0.744,0.061,0.993v3.195h-1.372
		v-2.916c0-0.135-0.004-0.305-0.01-0.51c-0.02-0.215-0.066-0.424-0.136-0.629c-0.067-0.215-0.18-0.393-0.338-0.535
		c-0.162-0.142-0.386-0.216-0.675-0.223c-0.127,0-0.282,0.037-0.463,0.109c-0.184,0.076-0.342,0.215-0.474,0.416
		c-0.117,0.191-0.19,0.417-0.216,0.681c-0.027,0.27-0.038,0.535-0.03,0.796v2.812h-1.372V133.37z"/>
	<path id="XMLID_51_" fill="#414042" d="M224.776,137.028c0.051,0.381,0.179,0.65,0.385,0.806c0.195,0.166,0.406,0.25,0.633,0.25
		c0.29,0,0.54-0.094,0.749-0.281c0.199-0.177,0.302-0.414,0.309-0.713c0-0.205-0.027-0.374-0.081-0.51
		c-0.064-0.129-0.158-0.24-0.283-0.334c-0.124-0.09-0.276-0.175-0.454-0.255c-0.185-0.07-0.399-0.147-0.642-0.234
		c-0.152-0.063-0.327-0.141-0.525-0.234c-0.202-0.094-0.402-0.219-0.601-0.374c-0.192-0.17-0.354-0.385-0.485-0.645
		c-0.138-0.263-0.207-0.602-0.207-1.014c0.007-0.645,0.22-1.178,0.64-1.597c0.413-0.427,0.946-0.644,1.597-0.651
		c0.477,0,0.959,0.17,1.446,0.51c0.235,0.177,0.425,0.407,0.57,0.692c0.151,0.291,0.234,0.64,0.247,1.046h-1.446
		c-0.034-0.347-0.132-0.585-0.297-0.713c-0.174-0.115-0.36-0.172-0.558-0.172c-0.218,0-0.399,0.071-0.543,0.213
		c-0.161,0.149-0.241,0.345-0.241,0.588c0,0.327,0.117,0.557,0.353,0.692c0.117,0.07,0.252,0.137,0.403,0.202
		c0.158,0.063,0.33,0.13,0.514,0.203c0.175,0.048,0.375,0.118,0.601,0.209c0.222,0.107,0.438,0.249,0.65,0.426
		c0.216,0.181,0.395,0.417,0.54,0.708c0.138,0.291,0.21,0.653,0.216,1.082c-0.016,0.853-0.28,1.486-0.788,1.899
		c-0.506,0.413-1.071,0.619-1.699,0.619c-0.242,0-0.5-0.047-0.773-0.14c-0.132-0.055-0.266-0.12-0.405-0.193
		c-0.138-0.062-0.27-0.14-0.395-0.234c-0.256-0.191-0.463-0.442-0.621-0.754c-0.172-0.306-0.272-0.671-0.299-1.098H224.776z"/>
	<path id="XMLID_53_" fill="#414042" d="M230.457,134.629h-0.673v-1.259h0.673v-1.966h1.372v1.966h0.823v1.259h-0.823v4.657h-1.372
		V134.629z"/>
	<path id="XMLID_55_" fill="#414042" d="M236.923,139.478c-0.867-0.013-1.586-0.326-2.157-0.936
		c-0.591-0.603-0.89-1.339-0.896-2.206c0.013-0.916,0.319-1.668,0.917-2.258c0.588-0.59,1.301-0.892,2.138-0.906
		c0.841,0.007,1.554,0.302,2.138,0.885c0.585,0.579,0.884,1.332,0.898,2.258c-0.014,0.978-0.32,1.744-0.919,2.299
		C238.457,139.183,237.751,139.471,236.923,139.478z M236.923,138.178c0.511-0.007,0.915-0.196,1.211-0.567
		c0.296-0.36,0.448-0.781,0.454-1.263c-0.006-0.555-0.175-1.005-0.505-1.351c-0.326-0.343-0.713-0.518-1.16-0.525
		c-0.377,0-0.746,0.152-1.106,0.457c-0.37,0.323-0.562,0.792-0.575,1.408c0.007,0.562,0.182,1.005,0.525,1.331
		C236.09,138.008,236.475,138.178,236.923,138.178z"/>
	<path id="XMLID_58_" fill="#414042" d="M247.583,137.357c-0.514,1.386-1.471,2.094-2.869,2.121
		c-0.763-0.007-1.453-0.295-2.069-0.864c-0.632-0.555-0.959-1.325-0.978-2.31c0.013-0.926,0.326-1.675,0.938-2.247
		c0.585-0.583,1.285-0.878,2.098-0.885c0.191,0,0.418,0.025,0.681,0.073c0.263,0.055,0.535,0.161,0.817,0.317
		c0.289,0.15,0.553,0.367,0.792,0.652c0.242,0.285,0.438,0.659,0.59,1.121h-1.548c-0.034-0.076-0.082-0.168-0.146-0.275
		c-0.067-0.101-0.153-0.192-0.257-0.276c-0.105-0.093-0.229-0.168-0.374-0.223c-0.151-0.059-0.336-0.088-0.555-0.088
		c-0.427,0-0.805,0.156-1.134,0.468c-0.347,0.315-0.523,0.778-0.53,1.387c0,0.51,0.161,0.942,0.485,1.3
		c0.302,0.36,0.716,0.544,1.24,0.551c0.467,0.013,0.891-0.26,1.271-0.821H247.583z"/>
	<path id="XMLID_60_" fill="#414042" d="M249.517,131.404h1.372v2.383c0.047-0.041,0.113-0.102,0.197-0.182
		c0.08-0.07,0.18-0.135,0.297-0.198c0.242-0.149,0.573-0.227,0.993-0.234c0.702,0.014,1.289,0.316,1.763,0.906
		c0.222,0.305,0.357,0.635,0.404,0.989c0.034,0.353,0.051,0.649,0.051,0.884v3.335h-1.373v-3.025c0-0.163-0.006-0.346-0.02-0.551
		c-0.02-0.204-0.065-0.4-0.136-0.588c-0.067-0.19-0.184-0.346-0.352-0.467c-0.158-0.121-0.381-0.182-0.67-0.182
		c-0.288,0-0.509,0.068-0.66,0.203c-0.165,0.134-0.281,0.302-0.348,0.504c-0.111,0.436-0.159,0.806-0.146,1.107v2.999h-1.372
		V131.404z"/>
	<path id="XMLID_62_" fill="#414042" d="M262.533,139.285h-1.258v-0.734c-0.225,0.27-0.521,0.488-0.888,0.65
		c-0.37,0.177-0.742,0.269-1.114,0.276c-0.756-0.007-1.404-0.295-1.942-0.864c-0.552-0.555-0.834-1.328-0.848-2.32
		c0.007-0.926,0.289-1.677,0.848-2.253c0.538-0.572,1.214-0.862,2.027-0.869c0.303,0.007,0.567,0.049,0.792,0.125
		c0.228,0.087,0.425,0.189,0.59,0.307c0.165,0.114,0.292,0.222,0.384,0.323c0.08,0.1,0.124,0.165,0.13,0.192h0.02v-0.749h1.258
		V139.285z M261.234,136.32c-0.006-0.621-0.178-1.084-0.515-1.389c-0.337-0.306-0.722-0.458-1.157-0.458
		c-0.559,0.014-0.983,0.216-1.272,0.608c-0.29,0.384-0.435,0.811-0.435,1.278c0.006,0.51,0.172,0.935,0.495,1.278
		c0.309,0.353,0.714,0.534,1.212,0.541c0.488,0,0.887-0.173,1.197-0.52c0.309-0.343,0.468-0.79,0.474-1.341V136.32z"/>
	<path id="XMLID_65_" fill="#414042" d="M267.013,134.983c-0.021-0.122-0.053-0.219-0.097-0.291
		c-0.053-0.063-0.109-0.111-0.166-0.145c-0.126-0.052-0.231-0.078-0.317-0.078c-0.176,0.007-0.313,0.06-0.41,0.161
		c-0.104,0.101-0.155,0.219-0.155,0.354c-0.007,0.156,0.067,0.272,0.223,0.349c0.156,0.087,0.417,0.191,0.781,0.312
		c0.198,0.049,0.392,0.108,0.583,0.177c0.188,0.087,0.363,0.198,0.526,0.333c0.163,0.128,0.293,0.291,0.39,0.489
		c0.101,0.215,0.151,0.471,0.151,0.77c-0.013,0.659-0.224,1.166-0.632,1.519c-0.415,0.357-0.884,0.539-1.408,0.546
		c-0.295,0-0.6-0.06-0.915-0.182c-0.316-0.114-0.593-0.313-0.833-0.598c-0.086-0.118-0.152-0.234-0.201-0.349
		c-0.062-0.115-0.108-0.226-0.138-0.333c-0.055-0.212-0.089-0.41-0.103-0.593h1.442c0.024,0.063,0.05,0.137,0.078,0.223
		c0.034,0.084,0.076,0.165,0.124,0.245c0.1,0.184,0.292,0.28,0.575,0.287c0.232-0.007,0.398-0.078,0.499-0.214
		c0.093-0.128,0.14-0.256,0.14-0.384c0-0.212-0.095-0.375-0.284-0.489c-0.207-0.108-0.57-0.24-1.088-0.395
		c-0.158-0.063-0.309-0.141-0.454-0.234c-0.158-0.091-0.299-0.203-0.424-0.338c-0.118-0.135-0.216-0.299-0.293-0.489
		c-0.073-0.188-0.111-0.397-0.111-0.63c0.014-0.582,0.229-1.033,0.645-1.352c0.392-0.313,0.831-0.472,1.319-0.479
		c0.463,0,0.89,0.153,1.278,0.458c0.378,0.312,0.588,0.763,0.629,1.353H267.013z"/>
	<path id="XMLID_67_" fill="#414042" d="M270.523,134.629h-0.673v-1.259h0.673v-1.966h1.372v1.966h0.823v1.259h-0.823v4.657h-1.372
		V134.629z"/>
	<path id="XMLID_69_" fill="#414042" d="M274.227,131.404h1.372v1.3h-1.372V131.404z M274.227,133.37h1.372v5.916h-1.372V133.37z"/>
	<path id="XMLID_72_" fill="#414042" d="M283.384,137.357c-0.514,1.386-1.471,2.094-2.869,2.121
		c-0.763-0.007-1.453-0.295-2.069-0.864c-0.632-0.555-0.959-1.325-0.978-2.31c0.013-0.926,0.326-1.675,0.938-2.247
		c0.585-0.583,1.285-0.878,2.098-0.885c0.191,0,0.418,0.025,0.681,0.073c0.263,0.055,0.535,0.161,0.817,0.317
		c0.289,0.15,0.552,0.367,0.792,0.652c0.242,0.285,0.438,0.659,0.59,1.121h-1.548c-0.034-0.076-0.082-0.168-0.146-0.275
		c-0.067-0.101-0.153-0.192-0.257-0.276c-0.105-0.093-0.229-0.168-0.374-0.223c-0.151-0.059-0.336-0.088-0.555-0.088
		c-0.427,0-0.805,0.156-1.134,0.468c-0.347,0.315-0.523,0.778-0.53,1.387c0,0.51,0.161,0.942,0.484,1.3
		c0.302,0.36,0.716,0.544,1.24,0.551c0.467,0.013,0.891-0.26,1.271-0.821H283.384z"/>
	<path id="XMLID_77_" fill="#414042" d="M290.196,137.028c0.051,0.381,0.179,0.65,0.385,0.806c0.195,0.166,0.406,0.25,0.633,0.25
		c0.29,0,0.54-0.094,0.749-0.281c0.199-0.177,0.302-0.414,0.309-0.713c0-0.205-0.027-0.374-0.081-0.51
		c-0.064-0.129-0.158-0.24-0.283-0.334c-0.124-0.09-0.276-0.175-0.454-0.255c-0.185-0.07-0.399-0.147-0.642-0.234
		c-0.152-0.063-0.327-0.141-0.525-0.234c-0.202-0.094-0.402-0.219-0.601-0.374c-0.192-0.17-0.354-0.385-0.485-0.645
		c-0.138-0.263-0.207-0.602-0.207-1.014c0.007-0.645,0.22-1.178,0.64-1.597c0.413-0.427,0.946-0.644,1.597-0.651
		c0.477,0,0.959,0.17,1.446,0.51c0.235,0.177,0.425,0.407,0.57,0.692c0.151,0.291,0.234,0.64,0.247,1.046h-1.446
		c-0.034-0.347-0.132-0.585-0.297-0.713c-0.174-0.115-0.36-0.172-0.558-0.172c-0.218,0-0.399,0.071-0.543,0.213
		c-0.161,0.149-0.241,0.345-0.241,0.588c0,0.327,0.117,0.557,0.353,0.692c0.117,0.07,0.252,0.137,0.403,0.202
		c0.158,0.063,0.33,0.13,0.514,0.203c0.175,0.048,0.375,0.118,0.601,0.209c0.222,0.107,0.438,0.249,0.65,0.426
		c0.216,0.181,0.395,0.417,0.54,0.708c0.138,0.291,0.21,0.653,0.216,1.082c-0.016,0.853-0.28,1.486-0.788,1.899
		c-0.506,0.413-1.071,0.619-1.699,0.619c-0.242,0-0.5-0.047-0.773-0.14c-0.132-0.055-0.266-0.12-0.405-0.193
		c-0.138-0.062-0.27-0.14-0.395-0.234c-0.256-0.191-0.463-0.442-0.621-0.754c-0.172-0.306-0.272-0.671-0.299-1.098H290.196z"/>
	<path id="XMLID_79_" fill="#414042" d="M296.75,136.959c0.02,0.098,0.069,0.211,0.146,0.34c0.074,0.143,0.177,0.279,0.308,0.408
		c0.138,0.129,0.301,0.239,0.489,0.33c0.184,0.094,0.399,0.141,0.64,0.141c0.619,0,1.059-0.253,1.321-0.759h1.442
		c-0.171,0.552-0.504,1.025-0.998,1.418c-0.497,0.413-1.085,0.628-1.765,0.641c-0.87-0.013-1.586-0.322-2.147-0.926
		c-0.578-0.589-0.872-1.325-0.882-2.205c0.01-0.867,0.295-1.613,0.856-2.237c0.545-0.635,1.264-0.959,2.158-0.973
		c0.924,0.024,1.647,0.356,2.172,0.992c0.52,0.63,0.784,1.335,0.791,2.114c-0.007,0.277-0.034,0.516-0.08,0.717H296.75z
		 M299.882,135.826c-0.084-0.484-0.274-0.836-0.57-1.056c-0.303-0.223-0.629-0.334-0.978-0.334c-0.124,0-0.266,0.018-0.424,0.052
		c-0.162,0.038-0.321,0.11-0.479,0.215c-0.159,0.108-0.299,0.251-0.424,0.428c-0.121,0.188-0.22,0.42-0.298,0.695H299.882z"/>
	<path id="XMLID_82_" fill="#414042" d="M308.986,139.285h-1.258v-0.734c-0.225,0.27-0.521,0.488-0.888,0.65
		c-0.37,0.177-0.742,0.269-1.114,0.276c-0.756-0.007-1.404-0.295-1.942-0.864c-0.552-0.555-0.834-1.328-0.848-2.32
		c0.007-0.926,0.289-1.677,0.848-2.253c0.538-0.572,1.214-0.862,2.027-0.869c0.303,0.007,0.567,0.049,0.792,0.125
		c0.228,0.087,0.425,0.189,0.59,0.307c0.165,0.114,0.292,0.222,0.384,0.323c0.081,0.1,0.124,0.165,0.131,0.192h0.02v-0.749h1.258
		V139.285z M307.687,136.32c-0.006-0.621-0.178-1.084-0.515-1.389s-0.722-0.458-1.157-0.458c-0.559,0.014-0.983,0.216-1.272,0.608
		c-0.29,0.384-0.434,0.811-0.434,1.278c0.006,0.51,0.172,0.935,0.495,1.278c0.309,0.353,0.714,0.534,1.212,0.541
		c0.488,0,0.887-0.173,1.197-0.52c0.309-0.343,0.468-0.79,0.474-1.341V136.32z"/>
	<path id="XMLID_85_" fill="#414042" d="M311.197,133.37h1.26v0.525h0.02c0.124-0.201,0.275-0.373,0.453-0.515
		c0.178-0.131,0.437-0.201,0.776-0.208h0.111v1.374c-0.302,0.014-0.538,0.074-0.71,0.182c-0.171,0.111-0.295,0.245-0.372,0.401
		c-0.074,0.148-0.123,0.302-0.146,0.457c-0.013,0.149-0.02,0.274-0.02,0.375v3.324h-1.372V133.37z"/>
	<path id="XMLID_87_" fill="#414042" d="M321.03,137.357c-0.514,1.386-1.471,2.094-2.869,2.121
		c-0.763-0.007-1.453-0.295-2.069-0.864c-0.632-0.555-0.959-1.325-0.978-2.31c0.013-0.926,0.326-1.675,0.938-2.247
		c0.585-0.583,1.285-0.878,2.098-0.885c0.191,0,0.418,0.025,0.681,0.073c0.263,0.055,0.535,0.161,0.817,0.317
		c0.289,0.15,0.552,0.367,0.792,0.652c0.242,0.285,0.438,0.659,0.59,1.121h-1.548c-0.034-0.076-0.082-0.168-0.146-0.275
		c-0.067-0.101-0.153-0.192-0.257-0.276c-0.105-0.093-0.229-0.168-0.374-0.223c-0.151-0.059-0.336-0.088-0.555-0.088
		c-0.427,0-0.805,0.156-1.134,0.468c-0.347,0.315-0.523,0.778-0.53,1.387c0,0.51,0.161,0.942,0.485,1.3
		c0.302,0.36,0.716,0.544,1.24,0.551c0.467,0.013,0.891-0.26,1.271-0.821H321.03z"/>
	<path id="XMLID_89_" fill="#414042" d="M322.964,131.404h1.372v2.383c0.047-0.041,0.113-0.102,0.197-0.182
		c0.08-0.07,0.18-0.135,0.297-0.198c0.242-0.149,0.573-0.227,0.993-0.234c0.702,0.014,1.289,0.316,1.763,0.906
		c0.222,0.305,0.357,0.635,0.404,0.989c0.034,0.353,0.051,0.649,0.051,0.884v3.335h-1.373v-3.025c0-0.163-0.006-0.346-0.02-0.551
		c-0.02-0.204-0.065-0.4-0.136-0.588c-0.067-0.19-0.184-0.346-0.352-0.467c-0.158-0.121-0.381-0.182-0.67-0.182
		c-0.288,0-0.509,0.068-0.66,0.203c-0.165,0.134-0.281,0.302-0.348,0.504c-0.111,0.436-0.159,0.806-0.146,1.107v2.999h-1.372
		V131.404z"/>
</g>
<linearGradient id="XMLID_2_" gradientUnits="userSpaceOnUse" x1="157.8379" y1="68.8512" x2="157.8379" y2="182.5394" gradientTransform="matrix(1 0.0026 -0.0027 1.0329 1.12 -14.6136)">
	<stop  offset="0" style="stop-color:#FFFFFF"/>
	<stop  offset="0.4923" style="stop-color:#414042"/>
	<stop  offset="1" style="stop-color:#FFFFFF"/>
</linearGradient>
<rect id="XMLID_20_" x="158.353" y="65.041" fill="url(#XMLID_2_)" width="0.551" height="94.918"/>
<path id="XMLID_107_" fill="#5881D8" d="M344,83.214c2.748,0,4.871,1.936,4.871,4.496c0,2.56-2.123,4.497-4.871,4.497
	c-2.748,0-4.746-2.123-4.746-4.497C339.254,85.337,341.253,83.214,344,83.214z"/>
</svg>
